<svg width="17" height="17" viewBox="0 0 17 17" fill="none" xmlns="http://www.w3.org/2000/svg">
<path d="M8.99895 10.3272C8.68774 10.6384 8.68774 11.1429 8.99895 11.4541C9.15455 11.6097 9.3585 11.6876 9.56239 11.6876C9.76634 11.6876 9.97029 11.6098 10.1258 11.4541L12.5164 9.06368C12.535 9.04503 12.5526 9.02548 12.5693 9.00508C12.5766 8.99621 12.5829 8.9868 12.5898 8.97772C12.5985 8.96603 12.6076 8.95461 12.6157 8.94244C12.6231 8.93134 12.6296 8.91981 12.6364 8.90844C12.6429 8.8975 12.6498 8.88682 12.6558 8.87556C12.6621 8.86387 12.6673 8.85187 12.673 8.83997C12.6785 8.82833 12.6843 8.81686 12.6892 8.80496C12.694 8.79332 12.6979 8.78148 12.7021 8.76968C12.7068 8.75693 12.7116 8.74434 12.7156 8.73133C12.7191 8.71953 12.7217 8.70758 12.7247 8.69563C12.7281 8.6824 12.7318 8.66922 12.7345 8.65573C12.7372 8.64197 12.7388 8.62805 12.7408 8.61418C12.7425 8.60234 12.7448 8.59065 12.746 8.57864C12.7485 8.55293 12.7498 8.52706 12.7499 8.50124C12.7499 8.50087 12.7499 8.50044 12.7499 8.50007C12.7499 8.4997 12.7499 8.49928 12.7499 8.4989C12.7498 8.47303 12.7485 8.44721 12.746 8.42145C12.7448 8.4096 12.7426 8.39807 12.7409 8.38633C12.7389 8.37231 12.7372 8.35828 12.7345 8.34436C12.7318 8.33097 12.7282 8.31801 12.7248 8.30489C12.7218 8.29283 12.7191 8.28067 12.7155 8.26871C12.7116 8.25591 12.7068 8.24353 12.7023 8.23094C12.698 8.21893 12.6941 8.20687 12.6892 8.19508C12.6843 8.18339 12.6786 8.17218 12.6732 8.16082C12.6675 8.14865 12.6621 8.13638 12.6557 8.12442C12.6499 8.11353 12.6432 8.10317 12.6369 8.0926C12.6299 8.08086 12.6233 8.06902 12.6156 8.05759C12.6079 8.04596 12.5992 8.03507 12.5909 8.02386C12.5837 8.01424 12.577 8.00431 12.5693 7.99496C12.5534 7.97562 12.5365 7.95708 12.5189 7.93928C12.5181 7.93843 12.5174 7.93748 12.5165 7.93663L10.1259 5.54595C9.81468 5.23474 9.31016 5.23479 8.99895 5.54595C8.68774 5.85715 8.68774 6.36168 8.99895 6.67289L10.0293 7.70325H0.796875C0.356787 7.70325 0 8.06004 0 8.50013C0 8.94021 0.356787 9.297 0.796875 9.297H10.0292L8.99895 10.3272Z" fill="white"/>
<path d="M16.2031 1.32812H6.10938C5.66929 1.32812 5.3125 1.68491 5.3125 2.125V5.3125C5.3125 5.75259 5.66929 6.10938 6.10938 6.10938C6.54946 6.10938 6.90625 5.75259 6.90625 5.3125V2.92188H15.4063V14.0781H6.90625V11.6874C6.90625 11.2474 6.54946 10.8906 6.10938 10.8906C5.66929 10.8906 5.3125 11.2474 5.3125 11.6874V14.875C5.3125 15.3151 5.66929 15.6719 6.10938 15.6719H16.2031C16.6432 15.6719 17 15.3151 17 14.875V2.125C17 1.68486 16.6432 1.32812 16.2031 1.32812Z" fill="white"/>
</svg>
