<svg xmlns="http://www.w3.org/2000/svg" xmlns:xlink="http://www.w3.org/1999/xlink" width="39" height="39" viewBox="0 0 39 39">
  <defs>
    <style>
      .cls-1 {
        fill: #fff;
        fill-rule: evenodd;
        filter: url(#filter);
      }
    </style>
    <filter id="filter" x="31" y="271" width="39" height="39" filterUnits="userSpaceOnUse">
      <feFlood result="flood" flood-color="#fff"/>
      <feComposite result="composite" operator="in" in2="SourceGraphic"/>
      <feBlend result="blend" in2="SourceGraphic"/>
    </filter>
  </defs>
  <path id="User" class="cls-1" d="M50.5,310.006a19.5,19.5,0,1,1,19.51-19.5A19.527,19.527,0,0,1,50.5,310.006Zm12.041-6.577a13.185,13.185,0,0,0-3.8-1.295c-1.913-.475-4.466-0.82-4.242-3.019a6.033,6.033,0,0,1-6.111,1.007c-0.659-.27-1.1-0.831-1.582-0.791,0.133,2.142-2.474,2.372-4.242,2.8a11.4,11.4,0,0,0-3.94,1.442A17.6,17.6,0,0,0,62.543,303.429Zm-10.706-23.86c-5.939-.51-8.84,3.544-7.981,9.486a0.843,0.843,0,0,0-.647.359c0.016,1.781.351,3.243,1.654,3.737,0.649,2.924,2.716,6.348,6.4,5.893,2.974-.367,4.6-3.252,5.249-5.893,1.252-.5,1.7-2.17,1.582-3.809-0.027-.284-0.477-0.145-0.647-0.287C58.512,284.4,55.823,279.912,51.837,279.569ZM50.5,272.821a17.654,17.654,0,0,0-13.014,29.627,5.394,5.394,0,0,1,1.048-.745c1.892-1,4.369-.874,6.687-2.012v-2.012c-0.936-.845-1.083-2.235-1.726-3.378a20.125,20.125,0,0,1-1.294-1.8,5.96,5.96,0,0,1-.575-3.019c0.064-.6.438-0.976,0.5-1.509,0.092-.744-0.067-1.519,0-2.228a8.511,8.511,0,0,1,7.334-7.761h2.444a8.519,8.519,0,0,1,7.334,8.336c0.033,0.534-.159,1.127-0.072,1.725a16.087,16.087,0,0,1,.575,1.653,5.99,5.99,0,0,1-1.941,4.6,9.755,9.755,0,0,1-1.654,3.378v1.94c1.937,1.149,4.55,1.061,6.471,2.012a6.1,6.1,0,0,1,1.035.663A17.654,17.654,0,0,0,50.5,272.821Z" transform="translate(-31 -271)"/>
</svg>
